<svg width="24" height="25" viewBox="0 0 24 25" fill="none" xmlns="http://www.w3.org/2000/svg">
<path d="M12 2.8999C10.0904 2.8999 8.25909 3.65847 6.90883 5.00873C5.55856 6.359 4.79999 8.19034 4.79999 10.0999V14.4031L3.95159 15.2515C3.78382 15.4193 3.66958 15.6331 3.62329 15.8659C3.57701 16.0986 3.60078 16.3398 3.69158 16.5591C3.78239 16.7783 3.93615 16.9657 4.13344 17.0976C4.33074 17.2294 4.56269 17.2999 4.79999 17.2999H19.2C19.4373 17.2999 19.6693 17.2294 19.8665 17.0976C20.0638 16.9657 20.2176 16.7783 20.3084 16.5591C20.3992 16.3398 20.423 16.0986 20.3767 15.8659C20.3304 15.6331 20.2162 15.4193 20.0484 15.2515L19.2 14.4031V10.0999C19.2 8.19034 18.4414 6.359 17.0912 5.00873C15.7409 3.65847 13.9096 2.8999 12 2.8999ZM12 22.0999C11.0452 22.0999 10.1295 21.7206 9.45441 21.0455C8.77928 20.3704 8.39999 19.4547 8.39999 18.4999H15.6C15.6 19.4547 15.2207 20.3704 14.5456 21.0455C13.8704 21.7206 12.9548 22.0999 12 22.0999Z" fill="#111827"/>
</svg>
