<?xml version="1.0" standalone="no"?>
<!DOCTYPE svg PUBLIC "-//W3C//DTD SVG 20010904//EN"
 "http://www.w3.org/TR/2001/REC-SVG-20010904/DTD/svg10.dtd">
<svg version="1.0" xmlns="http://www.w3.org/2000/svg"
 width="100.000000pt" height="100.000000pt" viewBox="0 0 100.000000 100.000000"
 preserveAspectRatio="xMidYMid meet">
<metadata>
Created by potrace 1.14, written by Peter Selinger 2001-2017
</metadata>
<g transform="translate(0.000000,100.000000) scale(0.100000,-0.100000)"
fill="#000000" stroke="none">
<path d="M0 500 l0 -500 500 0 500 0 0 500 0 500 -500 0 -500 0 0 -500z m614
283 c21 -15 49 -41 60 -56 l21 -29 -43 -38 c-89 -80 -240 -73 -321 14 -23 24
-23 27 -8 50 21 32 78 75 114 86 50 17 133 4 177 -27z m-354 -112 c51 -59 119
-103 178 -116 l32 -7 0 -179 c0 -160 -2 -179 -17 -179 -28 0 -102 49 -126 85
l-23 34 -49 -49 c-51 -51 -78 -62 -89 -34 -4 10 13 36 52 77 l57 62 -9 53 -10
52 -62 0 c-65 0 -92 15 -80 45 4 11 22 15 76 15 l70 0 0 32 c0 24 -12 43 -50
84 -32 34 -48 58 -44 68 12 30 43 16 94 -43z m574 43 c4 -10 -12 -34 -44 -68
-38 -41 -50 -60 -50 -84 l0 -32 70 0 c54 0 72 -4 76 -15 12 -30 -15 -45 -80
-45 l-62 0 -10 -52 -9 -53 57 -62 c39 -41 56 -67 52 -77 -10 -27 -36 -18 -87
32 l-48 47 -32 -37 c-35 -41 -92 -78 -119 -78 -17 0 -18 15 -18 179 l0 179 33
7 c61 14 122 53 175 114 53 61 84 75 96 45z"/>
</g>
</svg>
