<svg width="173" height="32" viewBox="0 0 173 32" fill="none" xmlns="http://www.w3.org/2000/svg">
<path d="M28.7326 8.67589C28.5369 8.35767 28.3289 8.0498 28.1076 7.75461C26.2921 5.33345 23.8497 4 21.2304 4C18.6111 4 16.1688 5.33345 14.3532 7.75461C14.1318 8.0498 13.9239 8.35767 13.7281 8.67589C15.1411 10.9279 17.9735 12.4687 21.2303 12.4687C24.4873 12.4687 27.3197 10.9279 28.7326 8.67589Z" fill="#31C48D"/>
<path d="M35.4035 15.375H30.7826C30.7257 14.4898 30.5977 13.6233 30.4018 12.7871L34.0344 9.1544C34.447 8.74179 34.447 8.07288 34.0344 7.66028C33.6219 7.24768 32.9529 7.24768 32.5403 7.66028L30.7114 9.48917C30.1939 10.3939 29.4998 11.2271 28.6431 11.9563C26.9079 13.4335 24.6815 14.3312 22.2866 14.5357V28.7898C24.5013 28.4806 26.5384 27.2015 28.1073 25.1093C28.3825 24.7423 28.6381 24.3566 28.8737 23.9545L32.5404 27.6212C32.7467 27.8275 33.0171 27.9306 33.2875 27.9306C33.5578 27.9306 33.8283 27.8274 34.0345 27.6212C34.4471 27.2086 34.4471 26.5397 34.0345 26.1271L29.8381 21.9306C30.3612 20.5505 30.6823 19.048 30.7826 17.4879H35.4035C35.987 17.4879 36.46 17.0149 36.46 16.4314C36.46 15.848 35.9869 15.375 35.4035 15.375Z" fill="#31C48D"/>
<path d="M20.1734 14.5358C17.7784 14.3313 15.5521 13.4335 13.8168 11.9564C12.9601 11.2271 12.2661 10.394 11.7485 9.48924L9.91965 7.66028C9.50704 7.24768 8.83806 7.24768 8.42553 7.66028C8.01293 8.07288 8.01293 8.7418 8.42553 9.1544L12.0582 12.787C11.8624 13.6233 11.7343 14.4898 11.6774 15.3749H7.05651C6.47303 15.3749 6 15.848 6 16.4314C6 17.0149 6.47303 17.4879 7.05651 17.4879H11.6774C11.7777 19.048 12.0988 20.5505 12.6219 21.9306L8.42553 26.127C8.01293 26.5396 8.01293 27.2085 8.42553 27.6211C8.83806 28.0337 9.50704 28.0337 9.91965 27.6211L13.5863 23.9545C13.8219 24.3565 14.0775 24.7423 14.3527 25.1092C15.9215 27.2015 17.9587 28.4806 20.1734 28.7898V14.5358V14.5358Z" fill="#31C48D"/>
<path d="M42.3692 18.2878H44.4601L45.5113 19.6401L46.5454 20.8446L48.4942 23.2878H46.1988L44.8579 21.6401L44.1704 20.6628L42.3692 18.2878ZM48.6704 16.5151C48.6704 17.784 48.4298 18.8636 47.9488 19.7537C47.4715 20.6439 46.82 21.3238 45.9942 21.7935C45.1723 22.2594 44.248 22.4923 43.2215 22.4923C42.1874 22.4923 41.2594 22.2575 40.4374 21.7878C39.6154 21.3181 38.9658 20.6382 38.4885 19.748C38.0113 18.8579 37.7726 17.7802 37.7726 16.5151C37.7726 15.2461 38.0113 14.1666 38.4885 13.2764C38.9658 12.3863 39.6154 11.7083 40.4374 11.2423C41.2594 10.7726 42.1874 10.5378 43.2215 10.5378C44.248 10.5378 45.1723 10.7726 45.9942 11.2423C46.82 11.7083 47.4715 12.3863 47.9488 13.2764C48.4298 14.1666 48.6704 15.2461 48.6704 16.5151ZM46.176 16.5151C46.176 15.6931 46.0529 14.9999 45.8067 14.4355C45.5643 13.8711 45.2215 13.4431 44.7783 13.1514C44.3351 12.8598 43.8162 12.7139 43.2215 12.7139C42.6268 12.7139 42.1079 12.8598 41.6647 13.1514C41.2215 13.4431 40.8768 13.8711 40.6306 14.4355C40.3882 14.9999 40.267 15.6931 40.267 16.5151C40.267 17.337 40.3882 18.0302 40.6306 18.5946C40.8768 19.159 41.2215 19.587 41.6647 19.8787C42.1079 20.1704 42.6268 20.3162 43.2215 20.3162C43.8162 20.3162 44.3351 20.1704 44.7783 19.8787C45.2215 19.587 45.5643 19.159 45.8067 18.5946C46.0529 18.0302 46.176 17.337 46.176 16.5151ZM50.7222 22.3333H48.0859L52.1029 10.6969H55.2734L59.2847 22.3333H56.6484L53.7336 13.356H53.6427L50.7222 22.3333ZM50.5575 17.7594H56.7847V19.6798H50.5575V17.7594ZM60.9346 20.981C60.5596 20.981 60.2377 20.8484 59.9687 20.5833C59.7036 20.3181 59.571 19.9961 59.571 19.6173C59.571 19.2461 59.7036 18.9279 59.9687 18.6628C60.2377 18.3976 60.5596 18.2651 60.9346 18.2651C61.2983 18.2651 61.6164 18.3976 61.8892 18.6628C62.1619 18.9279 62.2983 19.2461 62.2983 19.6173C62.2983 19.8673 62.2339 20.0965 62.1051 20.3048C61.9801 20.5094 61.8153 20.6742 61.6108 20.7992C61.4062 20.9204 61.1808 20.981 60.9346 20.981ZM60.9346 15.2708C60.5596 15.2708 60.2377 15.1382 59.9687 14.873C59.7036 14.6079 59.571 14.2859 59.571 13.9071C59.571 13.5359 59.7036 13.2196 59.9687 12.9583C60.2377 12.6931 60.5596 12.5605 60.9346 12.5605C61.2983 12.5605 61.6164 12.6931 61.8892 12.9583C62.1619 13.2196 62.2983 13.5359 62.2983 13.9071C62.2983 14.1609 62.2339 14.392 62.1051 14.6003C61.9801 14.8048 61.8153 14.9677 61.6108 15.0889C61.4062 15.2101 61.1808 15.2708 60.9346 15.2708ZM120.397 22.3333H116.272V10.6969H120.431C121.602 10.6969 122.609 10.9298 123.454 11.3958C124.299 11.8579 124.948 12.5226 125.403 13.3901C125.861 14.2575 126.09 15.2954 126.09 16.5037C126.09 17.7158 125.861 18.7575 125.403 19.6287C124.948 20.4999 124.295 21.1685 123.443 21.6344C122.594 22.1003 121.579 22.3333 120.397 22.3333ZM118.732 20.2253H120.295C121.022 20.2253 121.634 20.0965 122.13 19.8389C122.63 19.5776 123.005 19.1742 123.255 18.6287C123.509 18.0795 123.636 17.3711 123.636 16.5037C123.636 15.6439 123.509 14.9412 123.255 14.3958C123.005 13.8503 122.632 13.4488 122.136 13.1912C121.64 12.9336 121.028 12.8048 120.301 12.8048H118.732V20.2253ZM127.913 22.3333V10.6969H135.754V12.7253H130.373V15.498H135.35V17.5264H130.373V20.3048H135.776V22.3333H127.913ZM147.977 14.7708H145.488C145.443 14.4488 145.35 14.1628 145.21 13.9128C145.07 13.659 144.89 13.4431 144.67 13.2651C144.45 13.087 144.196 12.9507 143.909 12.856C143.624 12.7613 143.316 12.7139 142.982 12.7139C142.38 12.7139 141.856 12.8636 141.409 13.1628C140.962 13.4583 140.615 13.8901 140.369 14.4583C140.123 15.0226 139.999 15.7083 139.999 16.5151C139.999 17.3446 140.123 18.0416 140.369 18.606C140.619 19.1704 140.967 19.5965 141.414 19.8844C141.861 20.1723 142.378 20.3162 142.965 20.3162C143.295 20.3162 143.6 20.2726 143.88 20.1855C144.164 20.0984 144.416 19.9715 144.636 19.8048C144.856 19.6344 145.037 19.4279 145.181 19.1855C145.329 18.9431 145.431 18.6666 145.488 18.356L147.977 18.3673C147.912 18.9014 147.751 19.4166 147.494 19.9128C147.24 20.4052 146.897 20.8465 146.465 21.2367C146.037 21.623 145.526 21.9298 144.931 22.1571C144.34 22.3806 143.672 22.4923 142.926 22.4923C141.888 22.4923 140.96 22.2575 140.142 21.7878C139.327 21.3181 138.683 20.6382 138.21 19.748C137.74 18.8579 137.505 17.7802 137.505 16.5151C137.505 15.2461 137.744 14.1666 138.221 13.2764C138.698 12.3863 139.346 11.7083 140.164 11.2423C140.982 10.7726 141.903 10.5378 142.926 10.5378C143.6 10.5378 144.225 10.6325 144.801 10.8219C145.38 11.0113 145.893 11.2878 146.34 11.6514C146.787 12.0113 147.151 12.4526 147.431 12.9753C147.715 13.498 147.897 14.0965 147.977 14.7708ZM149.741 22.3333V10.6969H152.201V15.8276H152.355L156.542 10.6969H159.491L155.173 15.9071L159.542 22.3333H156.599L153.411 17.5492L152.201 19.0264V22.3333H149.741Z" fill="#374151"/>
<path d="M63.2109 22.3333V10.6969H71.0518V12.7253H65.6712V15.498H70.6484V17.5264H65.6712V20.3048H71.0746V22.3333H63.2109ZM81.6208 10.6969V22.3333H79.4958L74.4333 15.0094H74.348V22.3333H71.8878V10.6969H74.0469L79.0696 18.0151H79.1719V10.6969H81.6208ZM90.2493 14.4583C90.1698 14.1817 90.0581 13.9374 89.9141 13.7253C89.7702 13.5094 89.594 13.3276 89.3857 13.1798C89.1812 13.0283 88.9463 12.9128 88.6812 12.8333C88.4198 12.7537 88.13 12.7139 87.8118 12.7139C87.2171 12.7139 86.6944 12.8617 86.2437 13.1571C85.7967 13.4526 85.4482 13.8825 85.1982 14.4469C84.9482 15.0075 84.8232 15.6931 84.8232 16.5037C84.8232 17.3143 84.9463 18.0037 85.1925 18.5719C85.4387 19.1401 85.7872 19.5738 86.238 19.873C86.6887 20.1685 87.2209 20.3162 87.8346 20.3162C88.3914 20.3162 88.8668 20.2177 89.2607 20.0208C89.6584 19.82 89.9615 19.5378 90.1698 19.1742C90.3819 18.8105 90.488 18.3806 90.488 17.8844L90.988 17.9583H87.988V16.106H92.8573V17.5719C92.8573 18.5946 92.6414 19.4734 92.2096 20.2083C91.7778 20.9393 91.1831 21.5037 90.4255 21.9014C89.6679 22.2954 88.8005 22.4923 87.8232 22.4923C86.7323 22.4923 85.774 22.2518 84.9482 21.7708C84.1225 21.2859 83.4785 20.5984 83.0164 19.7083C82.5581 18.8143 82.3289 17.7537 82.3289 16.5264C82.3289 15.5833 82.4653 14.7423 82.738 14.0037C83.0145 13.2613 83.4009 12.6325 83.8971 12.1173C84.3933 11.6022 84.9709 11.2101 85.63 10.9412C86.2891 10.6723 87.0031 10.5378 87.7721 10.5378C88.4312 10.5378 89.0448 10.6344 89.613 10.8276C90.1812 11.017 90.685 11.2859 91.1243 11.6344C91.5675 11.9829 91.9293 12.3976 92.2096 12.8787C92.4899 13.356 92.6698 13.8825 92.7493 14.4583H90.2493ZM96.0455 10.6969V22.3333H93.5853V10.6969H96.0455ZM106.683 10.6969V22.3333H104.558L99.4951 15.0094H99.4099V22.3333H96.9497V10.6969H99.1088L104.132 18.0151H104.234V10.6969H106.683ZM107.595 22.3333V10.6969H115.436V12.7253H110.056V15.498H115.033V17.5264H110.056V20.3048H115.459V22.3333H107.595Z" fill="#31C48D"/>
</svg>
