<svg width="33" height="33" viewBox="0 0 33 33" fill="none" xmlns="http://www.w3.org/2000/svg">
<g clip-path="url(#clip0_2461_643)">
<path d="M10.75 0.75V4.25M21.5 0.75V4.25M10.75 28.75V32.25M21.5 28.75V32.25M3.58333 11.25H0M3.58333 21.75H0M32.25 11.25H28.6667M32.25 21.75H28.6667M7.16667 28.75H25.0833C26.0337 28.75 26.9451 28.3813 27.6171 27.7249C28.2891 27.0685 28.6667 26.1783 28.6667 25.25V7.75C28.6667 6.82174 28.2891 5.9315 27.6171 5.27513C26.9451 4.61875 26.0337 4.25 25.0833 4.25H7.16667C6.21631 4.25 5.30487 4.61875 4.63287 5.27513C3.96086 5.9315 3.58333 6.82174 3.58333 7.75V25.25C3.58333 26.1783 3.96086 27.0685 4.63287 27.7249C5.30487 28.3813 6.21631 28.75 7.16667 28.75ZM10.75 11.25H21.5V21.75H10.75V11.25Z" stroke="#31C48D" stroke-width="2" stroke-linecap="round" stroke-linejoin="round"/>
</g>
<defs>
<clipPath id="clip0_2461_643">
<rect width="32.25" height="31.5" fill="white" transform="translate(0 0.75)"/>
</clipPath>
</defs>
</svg>
