<svg width="33" height="32" viewBox="0 0 33 32" fill="none" xmlns="http://www.w3.org/2000/svg">
<g clip-path="url(#clip0_2488_2078)">
<path d="M10.75 0V3.5M21.5 0V3.5M10.75 28V31.5M21.5 28V31.5M3.58333 10.5H0M3.58333 21H0M32.25 10.5H28.6667M32.25 21H28.6667M7.16667 28H25.0833C26.0337 28 26.9451 27.6313 27.6171 26.9749C28.2891 26.3185 28.6667 25.4283 28.6667 24.5V7C28.6667 6.07174 28.2891 5.1815 27.6171 4.52513C26.9451 3.86875 26.0337 3.5 25.0833 3.5H7.16667C6.21631 3.5 5.30487 3.86875 4.63287 4.52513C3.96086 5.1815 3.58333 6.07174 3.58333 7V24.5C3.58333 25.4283 3.96086 26.3185 4.63287 26.9749C5.30487 27.6313 6.21631 28 7.16667 28ZM10.75 10.5H21.5V21H10.75V10.5Z" stroke="#31C48D" stroke-width="2" stroke-linecap="round" stroke-linejoin="round"/>
</g>
<defs>
<clipPath id="clip0_2488_2078">
<rect width="32.25" height="31.5" fill="white"/>
</clipPath>
</defs>
</svg>
