<svg width="133" height="34" viewBox="0 0 133 34" fill="none" xmlns="http://www.w3.org/2000/svg">
<path d="M11.75 1V4.5M22.5 1V4.5M11.75 29V32.5M22.5 29V32.5M4.58333 11.5H1M4.58333 22H1M33.25 11.5H29.6667M33.25 22H29.6667M8.16667 29H26.0833C27.0337 29 27.9451 28.6313 28.6171 27.9749C29.2891 27.3185 29.6667 26.4283 29.6667 25.5V8C29.6667 7.07174 29.2891 6.1815 28.6171 5.52513C27.9451 4.86875 27.0337 4.5 26.0833 4.5H8.16667C7.21631 4.5 6.30487 4.86875 5.63287 5.52513C4.96086 6.1815 4.58333 7.07174 4.58333 8V25.5C4.58333 26.4283 4.96086 27.3185 5.63287 27.9749C6.30487 28.6313 7.21631 29 8.16667 29ZM11.75 11.5H22.5V22H11.75V11.5Z" stroke="#31C48D" stroke-width="2" stroke-linecap="round" stroke-linejoin="round"/>
<path d="M44.9727 17.6023H48.0408L49.1488 18.9943L51.0238 21.125L53.467 24.0795H49.9727L48.2397 22.0625L47.0749 20.3864L44.9727 17.6023ZM53.4386 15.7273C53.4386 17.3466 53.1237 18.7126 52.494 19.8253C51.8642 20.9332 51.0143 21.7737 49.9442 22.3466C48.8742 22.9148 47.681 23.1989 46.3647 23.1989C45.0389 23.1989 43.841 22.9124 42.771 22.3395C41.7056 21.7618 40.8581 20.919 40.2283 19.8111C39.6033 18.6984 39.2908 17.3371 39.2908 15.7273C39.2908 14.108 39.6033 12.7443 40.2283 11.6364C40.8581 10.5237 41.7056 9.68324 42.771 9.11506C43.841 8.54214 45.0389 8.25568 46.3647 8.25568C47.681 8.25568 48.8742 8.54214 49.9442 9.11506C51.0143 9.68324 51.8642 10.5237 52.494 11.6364C53.1237 12.7443 53.4386 14.108 53.4386 15.7273ZM49.3761 15.7273C49.3761 14.8561 49.2601 14.1222 49.0281 13.5256C48.8008 12.9242 48.4622 12.4697 48.0124 12.1619C47.5674 11.8494 47.0181 11.6932 46.3647 11.6932C45.7113 11.6932 45.1597 11.8494 44.7099 12.1619C44.2648 12.4697 43.9263 12.9242 43.6942 13.5256C43.467 14.1222 43.3533 14.8561 43.3533 15.7273C43.3533 16.5985 43.467 17.3348 43.6942 17.9361C43.9263 18.5327 44.2648 18.9872 44.7099 19.2997C45.1597 19.6075 45.7113 19.7614 46.3647 19.7614C47.0181 19.7614 47.5674 19.6075 48.0124 19.2997C48.4622 18.9872 48.8008 18.5327 49.0281 17.9361C49.2601 17.3348 49.3761 16.5985 49.3761 15.7273ZM58.1456 23H53.8842L58.6854 8.45455H64.0831L68.8842 23H64.6229L61.4411 12.4602H61.3274L58.1456 23ZM57.3501 17.2614H65.3615V20.2159H57.3501V17.2614Z" fill="#374151"/>
<path d="M72.2525 21.2528C71.8216 21.2528 71.4523 21.1013 71.1445 20.7983C70.8368 20.4905 70.6853 20.1212 70.69 19.6903C70.6853 19.2642 70.8368 18.8996 71.1445 18.5966C71.4523 18.2936 71.8216 18.142 72.2525 18.142C72.6692 18.142 73.0314 18.2936 73.3391 18.5966C73.6516 18.8996 73.8103 19.2642 73.815 19.6903C73.8103 19.9792 73.7345 20.242 73.5877 20.4787C73.4457 20.7154 73.2563 20.9048 73.0195 21.0469C72.7875 21.1842 72.5318 21.2528 72.2525 21.2528ZM72.2525 14.044C71.8216 14.044 71.4523 13.8925 71.1445 13.5895C70.8368 13.2817 70.6853 12.9124 70.69 12.4815C70.6853 12.0554 70.8368 11.6908 71.1445 11.3878C71.4523 11.08 71.8216 10.9261 72.2525 10.9261C72.6692 10.9261 73.0314 11.08 73.3391 11.3878C73.6516 11.6908 73.8103 12.0554 73.815 12.4815C73.8103 12.7656 73.7345 13.026 73.5877 13.2628C73.4457 13.4995 73.2563 13.6889 73.0195 13.831C72.7875 13.973 72.5318 14.044 72.2525 14.044ZM86.3274 13.0994C86.209 12.7159 86.0457 12.3726 85.8374 12.0696C85.6338 11.7618 85.3875 11.4991 85.0987 11.2812C84.8146 11.0634 84.4879 10.9001 84.1186 10.7912C83.7493 10.6776 83.3468 10.6207 82.9112 10.6207C82.13 10.6207 81.4339 10.8172 80.8232 11.2102C80.2124 11.6032 79.7318 12.1809 79.3814 12.9432C79.0357 13.7008 78.8629 14.6241 78.8629 15.7131C78.8629 16.8116 79.0357 17.742 79.3814 18.5043C79.727 19.2666 80.2076 19.8466 80.8232 20.2443C81.4387 20.6373 82.1536 20.8338 82.968 20.8338C83.7067 20.8338 84.3459 20.6918 84.8857 20.4077C85.4302 20.1236 85.8492 19.7211 86.1428 19.2003C86.4363 18.6747 86.5831 18.0592 86.5831 17.3537L87.1797 17.446H83.2308V15.3864H89.1328V17.1335C89.1328 18.3788 88.8677 19.456 88.3374 20.3651C87.8071 21.2741 87.0779 21.9749 86.1499 22.4673C85.2218 22.955 84.1565 23.1989 82.9538 23.1989C81.6139 23.1989 80.4373 22.8982 79.424 22.2969C78.4155 21.6908 77.6271 20.8314 77.0589 19.7188C76.4955 18.6013 76.2138 17.2756 76.2138 15.7415C76.2138 14.5672 76.3795 13.5185 76.7109 12.5952C77.0471 11.6719 77.5159 10.8883 78.1172 10.2443C78.7185 9.59564 79.424 9.10322 80.2337 8.76705C81.0433 8.42614 81.924 8.25568 82.8757 8.25568C83.6806 8.25568 84.4311 8.37405 85.1271 8.6108C85.8232 8.8428 86.4411 9.17424 86.9808 9.60511C87.5253 10.036 87.9728 10.5473 88.3232 11.1392C88.6735 11.7311 88.9032 12.3845 89.0121 13.0994H86.3274ZM100.85 8.45455H103.485V17.9574C103.485 18.9991 103.239 19.9152 102.746 20.706C102.258 21.4967 101.572 22.1146 100.686 22.5597C99.801 23 98.7665 23.2202 97.5827 23.2202C96.3943 23.2202 95.3574 23 94.4719 22.5597C93.5865 22.1146 92.9 21.4967 92.4123 20.706C91.9246 19.9152 91.6808 18.9991 91.6808 17.9574V8.45455H94.3157V17.7372C94.3157 18.3433 94.4483 18.883 94.7134 19.3565C94.9833 19.83 95.3621 20.2017 95.8498 20.4716C96.3375 20.7367 96.9151 20.8693 97.5827 20.8693C98.2504 20.8693 98.828 20.7367 99.3157 20.4716C99.8081 20.2017 100.187 19.83 100.452 19.3565C100.717 18.883 100.85 18.3433 100.85 17.7372V8.45455ZM106.349 23V8.45455H111.803C112.921 8.45455 113.858 8.64867 114.616 9.03693C115.378 9.42519 115.953 9.9697 116.342 10.6705C116.735 11.3665 116.931 12.1785 116.931 13.1065C116.931 14.0393 116.732 14.849 116.335 15.5355C115.942 16.2173 115.362 16.7453 114.594 17.1193C113.827 17.4886 112.885 17.6733 111.768 17.6733H107.883V15.4858H111.413C112.066 15.4858 112.601 15.3958 113.018 15.2159C113.434 15.0312 113.742 14.7637 113.941 14.4134C114.145 14.0582 114.246 13.6226 114.246 13.1065C114.246 12.5904 114.145 12.1501 113.941 11.7855C113.737 11.4162 113.427 11.1368 113.011 10.9474C112.594 10.7533 112.057 10.6562 111.398 10.6562H108.984V23H106.349ZM113.863 16.4091L117.464 23H114.523L110.987 16.4091H113.863ZM128.526 8.45455H131.161V17.9574C131.161 18.9991 130.914 19.9152 130.422 20.706C129.934 21.4967 129.248 22.1146 128.362 22.5597C127.477 23 126.442 23.2202 125.259 23.2202C124.07 23.2202 123.033 23 122.148 22.5597C121.262 22.1146 120.576 21.4967 120.088 20.706C119.6 19.9152 119.357 18.9991 119.357 17.9574V8.45455H121.991V17.7372C121.991 18.3433 122.124 18.883 122.389 19.3565C122.659 19.83 123.038 20.2017 123.526 20.4716C124.013 20.7367 124.591 20.8693 125.259 20.8693C125.926 20.8693 126.504 20.7367 126.991 20.4716C127.484 20.2017 127.863 19.83 128.128 19.3565C128.393 18.883 128.526 18.3433 128.526 17.7372V8.45455Z" fill="#31C48D"/>
</svg>
